<svg width="16" height="14" viewBox="0 0 16 14" fill="none" xmlns="http://www.w3.org/2000/svg">
<g clip-path="url(#clip0_279_401)">
<path d="M11.3039 6.45286C11.3039 6.45286 11.2456 2.87919 7.75785 2.16493C7.75785 2.16493 5.17487 1.60376 3.14738 4.41066C3.14738 4.41066 1.77692 6.18912 2.27583 8.89444C2.27583 8.89444 2.79092 11.2519 4.78348 11.9919C4.78348 11.9919 6.80978 12.8851 8.89486 11.4467C8.89486 11.4467 11.3533 9.96669 11.3039 6.45286ZM10.6726 8.87768C9.37588 11.7788 6.9357 11.8466 6.9357 11.8466C4.03632 11.9406 3.2307 9.49 3.2307 9.49C2.18416 7.03968 3.76217 4.81927 3.76217 4.81927C5.92137 1.96018 8.45543 2.98127 8.45543 2.98127C10.3485 3.52588 10.8963 5.64436 10.8963 5.64436C11.3453 7.4017 10.6726 8.87768 10.6726 8.87768Z" fill="#0A0708"/>
<path d="M11.3039 6.45286C11.3039 6.45286 11.2456 2.87919 7.75785 2.16493C7.75785 2.16493 5.17487 1.60376 3.14738 4.41066C3.14738 4.41066 1.77692 6.18912 2.27583 8.89444C2.27583 8.89444 2.79092 11.2519 4.78348 11.9919C4.78348 11.9919 6.80978 12.8851 8.89486 11.4467C8.89486 11.4467 11.3533 9.96669 11.3039 6.45286ZM10.6726 8.87768C9.37588 11.7788 6.9357 11.8466 6.9357 11.8466C4.03632 11.9406 3.2307 9.49 3.2307 9.49C2.18416 7.03968 3.76217 4.81927 3.76217 4.81927C5.92137 1.96018 8.45543 2.98127 8.45543 2.98127C10.3485 3.52588 10.8963 5.64436 10.8963 5.64436C11.3453 7.4017 10.6726 8.87768 10.6726 8.87768Z" fill="black" fill-opacity="0.2"/>
<path d="M9.85855 4.50846C9.85855 4.50846 8.12143 2.46835 5.56214 4.09025C5.56214 4.09025 3.84424 5.04119 3.64181 7.53354C3.64181 7.53354 3.52136 9.24221 4.58391 10.3628C4.58391 10.3628 5.90445 11.9486 8.05991 11.1912C8.05991 11.1912 9.84799 10.7122 10.6253 8.3616C10.6253 8.3616 11.3715 6.34 9.85855 4.50846ZM9.58286 9.87092C8.00315 11.567 6.25187 10.8287 6.25187 10.8287C4.30276 10.1519 4.31844 7.84424 4.31844 7.84424C4.39358 5.03491 6.7358 4.26444 6.7358 4.26444C9.04681 3.50657 10.1579 5.55889 10.1579 5.55889C11.3647 8.01269 9.58286 9.87092 9.58286 9.87092Z" fill="#0A0708"/>
<path d="M9.85855 4.50846C9.85855 4.50846 8.12143 2.46835 5.56214 4.09025C5.56214 4.09025 3.84424 5.04119 3.64181 7.53354C3.64181 7.53354 3.52136 9.24221 4.58391 10.3628C4.58391 10.3628 5.90445 11.9486 8.05991 11.1912C8.05991 11.1912 9.84799 10.7122 10.6253 8.3616C10.6253 8.3616 11.3715 6.34 9.85855 4.50846ZM9.58286 9.87092C8.00315 11.567 6.25187 10.8287 6.25187 10.8287C4.30276 10.1519 4.31844 7.84424 4.31844 7.84424C4.39358 5.03491 6.7358 4.26444 6.7358 4.26444C9.04681 3.50657 10.1579 5.55889 10.1579 5.55889C11.3647 8.01269 9.58286 9.87092 9.58286 9.87092Z" fill="black" fill-opacity="0.2"/>
<path d="M10.2647 6.60752C10.2647 6.60752 9.93908 4.97548 8.18268 4.68748C8.18268 4.68748 6.56466 4.38099 5.41844 6.19732C5.41844 6.19732 4.16572 8.3104 5.8352 9.96721C5.8352 9.96721 7.26325 11.4181 9.19091 9.96721C9.19091 9.96721 10.7508 8.67992 10.2647 6.60752ZM10.0309 8.401C9.51191 9.94503 8.22308 10.194 8.22308 10.194C6.26835 10.6074 5.70878 8.73053 5.70878 8.73053C5.20289 6.74349 6.64968 5.72045 6.64968 5.72045C8.34302 4.56181 9.52625 5.84981 9.52625 5.84981C10.5303 6.98943 10.0309 8.401 10.0309 8.401Z" fill="#0A0708"/>
<path d="M10.2647 6.60752C10.2647 6.60752 9.93908 4.97548 8.18268 4.68748C8.18268 4.68748 6.56466 4.38099 5.41844 6.19732C5.41844 6.19732 4.16572 8.3104 5.8352 9.96721C5.8352 9.96721 7.26325 11.4181 9.19091 9.96721C9.19091 9.96721 10.7508 8.67992 10.2647 6.60752ZM10.0309 8.401C9.51191 9.94503 8.22308 10.194 8.22308 10.194C6.26835 10.6074 5.70878 8.73053 5.70878 8.73053C5.20289 6.74349 6.64968 5.72045 6.64968 5.72045C8.34302 4.56181 9.52625 5.84981 9.52625 5.84981C10.5303 6.98943 10.0309 8.401 10.0309 8.401Z" fill="black" fill-opacity="0.2"/>
<path d="M8.75449 5.85601C8.75449 5.85601 7.17428 5.31106 6.35299 7.19304C6.35299 7.19304 5.74912 8.95108 7.22268 9.73444C7.22268 9.73444 8.45068 10.3298 9.42413 9.17118C9.42413 9.17118 9.94878 8.58802 9.96137 7.63971C9.96137 7.63971 10.0183 6.33532 8.75449 5.85601ZM8.55821 9.53948C6.78885 9.7924 6.78884 7.99283 6.78884 7.99283C6.89025 6.43183 8.31215 6.28348 8.31215 6.28348C9.66695 6.27404 9.79065 7.63989 9.79065 7.63989C9.86493 9.18322 8.55821 9.53948 8.55821 9.53948Z" fill="#0A0708"/>
<path d="M8.75449 5.85601C8.75449 5.85601 7.17428 5.31106 6.35299 7.19304C6.35299 7.19304 5.74912 8.95108 7.22268 9.73444C7.22268 9.73444 8.45068 10.3298 9.42413 9.17118C9.42413 9.17118 9.94878 8.58802 9.96137 7.63971C9.96137 7.63971 10.0183 6.33532 8.75449 5.85601ZM8.55821 9.53948C6.78885 9.7924 6.78884 7.99283 6.78884 7.99283C6.89025 6.43183 8.31215 6.28348 8.31215 6.28348C9.66695 6.27404 9.79065 7.63989 9.79065 7.63989C9.86493 9.18322 8.55821 9.53948 8.55821 9.53948Z" fill="black" fill-opacity="0.2"/>
<path d="M8.33176 6.7643C8.33176 6.7643 7.35831 6.94583 7.29492 8.10483C7.29492 8.10483 7.32149 9.40782 8.59687 9.2703C8.59687 9.2703 9.53198 9.08877 9.63303 8.05282C9.63303 8.05282 9.70255 6.59621 8.33176 6.7643ZM9.00173 8.92068C8.11637 9.32737 7.80694 8.47331 7.80694 8.47331C7.56738 7.56705 8.33771 7.19476 8.33771 7.19476C9.2321 6.90411 9.47508 7.75488 9.47508 7.75488C9.58942 8.66148 9.00173 8.92068 9.00173 8.92068Z" fill="#0A0708"/>
<path d="M8.33176 6.7643C8.33176 6.7643 7.35831 6.94583 7.29492 8.10483C7.29492 8.10483 7.32149 9.40782 8.59687 9.2703C8.59687 9.2703 9.53198 9.08877 9.63303 8.05282C9.63303 8.05282 9.70255 6.59621 8.33176 6.7643ZM9.00173 8.92068C8.11637 9.32737 7.80694 8.47331 7.80694 8.47331C7.56738 7.56705 8.33771 7.19476 8.33771 7.19476C9.2321 6.90411 9.47508 7.75488 9.47508 7.75488C9.58942 8.66148 9.00173 8.92068 9.00173 8.92068Z" fill="black" fill-opacity="0.2"/>
<path d="M9.28485 7.67557C9.28485 7.67557 8.77896 7.00845 8.17884 7.80526C8.17884 7.80526 7.83856 8.49175 8.46391 8.80837C8.46391 8.80837 9.03199 9.09359 9.361 8.36136C9.361 8.36136 9.49374 7.96076 9.28485 7.67557ZM9.0773 8.62126C8.67791 8.84746 8.46373 8.49193 8.46373 8.49193C8.18565 7.92795 8.74419 7.69528 8.74419 7.69528C9.05704 7.61673 9.21652 7.83546 9.21652 7.83546C9.50584 8.28594 9.0773 8.62126 9.0773 8.62126Z" fill="#0A0708"/>
<path d="M9.28485 7.67557C9.28485 7.67557 8.77896 7.00845 8.17884 7.80526C8.17884 7.80526 7.83856 8.49175 8.46391 8.80837C8.46391 8.80837 9.03199 9.09359 9.361 8.36136C9.361 8.36136 9.49374 7.96076 9.28485 7.67557ZM9.0773 8.62126C8.67791 8.84746 8.46373 8.49193 8.46373 8.49193C8.18565 7.92795 8.74419 7.69528 8.74419 7.69528C9.05704 7.61673 9.21652 7.83546 9.21652 7.83546C9.50584 8.28594 9.0773 8.62126 9.0773 8.62126Z" fill="black" fill-opacity="0.2"/>
<path d="M8.97015 7.88965C8.97015 7.88965 8.60908 7.88965 8.62817 8.32392C8.62817 8.32392 8.69106 8.58766 8.97015 8.57596C8.97015 8.57596 9.32967 8.48485 9.2225 8.09037C9.2225 8.09037 9.19096 7.91479 8.97015 7.88965Z" fill="#0A0708"/>
<path d="M8.97015 7.88965C8.97015 7.88965 8.60908 7.88965 8.62817 8.32392C8.62817 8.32392 8.69106 8.58766 8.97015 8.57596C8.97015 8.57596 9.32967 8.48485 9.2225 8.09037C9.2225 8.09037 9.19096 7.91479 8.97015 7.88965Z" fill="black" fill-opacity="0.2"/>
<path d="M11.878 5.58083C11.9162 5.57141 14.4008 5.8006 14.7817 8.62041C14.7817 8.62041 15.1236 11.0223 13.0933 12.3947C13.0933 12.3947 11.1225 13.902 8.98682 12.1958L9.16179 12.0723C9.16179 12.0723 10.6428 13.4189 12.7191 12.2196C12.7191 12.2196 14.1304 11.406 14.4068 9.54166C14.4068 9.54166 14.6772 8.00269 13.6387 6.79359C13.6387 6.79359 12.9198 5.88315 11.9054 5.79448L11.878 5.58083Z" fill="#4398D3"/>
<path d="M11.9301 6.02881C11.9301 6.02881 13.4743 6.34037 13.9279 8.18309C13.9279 8.18309 14.4865 10.2883 12.7064 11.7215C12.7064 11.7215 11.1643 13.0217 9.35986 11.9207L9.57951 11.7355C9.57951 11.7355 10.8343 12.4754 12.2855 11.4998C12.2855 11.4998 13.9678 10.4299 13.5135 8.22218C13.5135 8.22218 13.3174 6.90241 11.9476 6.31105L11.9301 6.02881Z" fill="#4398D3"/>
<path d="M11.953 6.67529C11.953 6.67529 13.1788 7.21344 13.1321 9.05684C13.1321 9.05684 13.0207 11.1434 10.9247 11.5942C10.9247 11.5942 10.2337 11.6724 9.82666 11.4991L10.0811 11.2347C10.0811 11.2347 11.4176 11.5672 12.3635 10.0601C12.3635 10.0601 12.8893 9.25442 12.6265 8.18358C12.6265 8.18358 12.4713 7.4571 11.9317 7.03277L11.953 6.67529Z" fill="#4398D3"/>
<path d="M10.7315 10.4014C10.7347 10.3966 11.2933 10.2957 11.7261 9.42055C11.7261 9.42055 12.0193 8.76216 11.7547 8.05839C11.7547 8.05839 11.844 7.52566 11.8653 7.45898C11.8653 7.45898 12.508 8.09434 12.2057 9.3235C12.2057 9.3235 11.8702 10.7148 10.3599 10.9093L10.7315 10.4014Z" fill="#4398D3"/>
<path d="M0.0541992 6.07441L0.729462 6.14964C0.745139 5.99359 0.766266 5.83233 0.79438 5.66668C0.79438 5.66668 1.0665 4.11686 2.02171 2.9453C2.02171 2.9453 3.38041 1.02162 5.7383 0.778122L5.84087 0.164062C5.29373 0.181343 4.93712 0.276471 4.93712 0.276471C2.04949 0.932769 0.789269 3.69237 0.789269 3.69237C0.351362 4.52654 0.136158 5.338 0.0541992 6.07441Z" fill="#4398D3"/>
<path d="M3.62608 12.0113C3.10128 11.6557 2.22852 10.912 1.8114 9.70251C1.8114 9.70251 1.32425 8.58209 1.49634 6.86436L0.821082 6.79053C0.6115 8.67183 1.26751 10.0624 1.27381 10.0761C1.78686 11.3014 2.62333 12.0278 3.24353 12.4254L3.62608 12.0113Z" fill="#0A0708"/>
<path d="M3.62608 12.0113C3.10128 11.6557 2.22852 10.912 1.8114 9.70251C1.8114 9.70251 1.32425 8.58209 1.49634 6.86436L0.821082 6.79053C0.6115 8.67183 1.26751 10.0624 1.27381 10.0761C1.78686 11.3014 2.62333 12.0278 3.24353 12.4254L3.62608 12.0113Z" fill="black" fill-opacity="0.2"/>
<path d="M11.8026 6.60377C11.8162 4.38071 10.762 2.94733 10.762 2.94733C9.46428 1.10952 7.67346 0.847176 6.608 0.87999L6.50578 1.49405C6.52146 1.49195 6.53782 1.48968 6.55416 1.48846C6.55416 1.48846 9.04427 1.08631 10.7051 3.53905C10.7051 3.53905 11.729 4.91414 11.5245 7.2906C11.5245 7.2906 11.371 9.16715 9.98346 10.8213C9.98346 10.8213 8.34941 12.7829 5.98438 12.7468L6.09206 13.1516C8.13523 13.0154 9.53484 11.5937 9.53484 11.5937C11.8367 9.44137 11.8026 6.60377 11.8026 6.60377Z" fill="#0A0708"/>
<path d="M11.8026 6.60377C11.8162 4.38071 10.762 2.94733 10.762 2.94733C9.46428 1.10952 7.67346 0.847176 6.608 0.87999L6.50578 1.49405C6.52146 1.49195 6.53782 1.48968 6.55416 1.48846C6.55416 1.48846 9.04427 1.08631 10.7051 3.53905C10.7051 3.53905 11.729 4.91414 11.5245 7.2906C11.5245 7.2906 11.371 9.16715 9.98346 10.8213C9.98346 10.8213 8.34941 12.7829 5.98438 12.7468L6.09206 13.1516C8.13523 13.0154 9.53484 11.5937 9.53484 11.5937C11.8367 9.44137 11.8026 6.60377 11.8026 6.60377Z" fill="black" fill-opacity="0.2"/>
<path d="M5.87733 13.5872C5.275 13.5782 4.62562 13.4396 3.94372 13.1067C3.94372 13.1067 3.77113 13.0247 3.51774 12.8521L3.13623 13.2659C3.59952 13.563 3.94339 13.6766 3.94339 13.6766C4.66941 13.9547 5.35678 14.0343 5.98382 13.9919L5.87733 13.5872Z" fill="#4398D3"/>
</g>
<defs>
<clipPath id="clip0_279_401">
<rect width="16" height="14" fill="white"/>
</clipPath>
</defs>
</svg>
