<svg width="140" height="41" viewBox="0 0 140 41" fill="none" xmlns="http://www.w3.org/2000/svg">
<g clip-path="url(#clip0_221_554)">
<path d="M33.9116 18.8977C33.9116 18.8977 33.7368 8.4319 23.2736 6.34014C23.2736 6.34014 15.5246 4.69671 9.44214 12.9169C9.44214 12.9169 5.33077 18.1253 6.82749 26.048C6.82749 26.048 8.37275 32.9519 14.3504 35.1193C14.3504 35.1193 20.4293 37.735 26.6846 33.5224C26.6846 33.5224 34.0598 29.1882 33.9116 18.8977ZM32.0177 25.9989C28.1276 34.4951 20.8071 34.6935 20.8071 34.6935C12.109 34.969 9.6921 27.7922 9.6921 27.7922C6.55248 20.6162 11.2865 14.1136 11.2865 14.1136C17.7641 5.74053 25.3663 8.73088 25.3663 8.73088C31.0455 10.3258 32.6889 16.5299 32.6889 16.5299C34.0358 21.6764 32.0177 25.9989 32.0177 25.9989Z" fill="#0A0708"/>
<path d="M33.9116 18.8977C33.9116 18.8977 33.7368 8.4319 23.2736 6.34014C23.2736 6.34014 15.5246 4.69671 9.44214 12.9169C9.44214 12.9169 5.33077 18.1253 6.82749 26.048C6.82749 26.048 8.37275 32.9519 14.3504 35.1193C14.3504 35.1193 20.4293 37.735 26.6846 33.5224C26.6846 33.5224 34.0598 29.1882 33.9116 18.8977ZM32.0177 25.9989C28.1276 34.4951 20.8071 34.6935 20.8071 34.6935C12.109 34.969 9.6921 27.7922 9.6921 27.7922C6.55248 20.6162 11.2865 14.1136 11.2865 14.1136C17.7641 5.74053 25.3663 8.73088 25.3663 8.73088C31.0455 10.3258 32.6889 16.5299 32.6889 16.5299C34.0358 21.6764 32.0177 25.9989 32.0177 25.9989Z" fill="black" fill-opacity="0.2"/>
<path d="M29.5757 13.2037C29.5757 13.2037 24.3643 7.2291 16.6864 11.9789C16.6864 11.9789 11.5327 14.7638 10.9254 22.0628C10.9254 22.0628 10.5641 27.0668 13.7517 30.3485C13.7517 30.3485 17.7133 34.9926 24.1797 32.7746C24.1797 32.7746 29.544 31.3719 31.876 24.4879C31.876 24.4879 34.1144 18.5675 29.5757 13.2037ZM28.7486 28.9081C24.0095 33.8751 18.7556 31.7128 18.7556 31.7128C12.9083 29.731 12.9553 22.9728 12.9553 22.9728C13.1807 14.7454 20.2074 12.4891 20.2074 12.4891C27.1404 10.2696 30.4738 16.28 30.4738 16.28C34.094 23.4661 28.7486 28.9081 28.7486 28.9081Z" fill="#0A0708"/>
<path d="M29.5757 13.2037C29.5757 13.2037 24.3643 7.2291 16.6864 11.9789C16.6864 11.9789 11.5327 14.7638 10.9254 22.0628C10.9254 22.0628 10.5641 27.0668 13.7517 30.3485C13.7517 30.3485 17.7133 34.9926 24.1797 32.7746C24.1797 32.7746 29.544 31.3719 31.876 24.4879C31.876 24.4879 34.1144 18.5675 29.5757 13.2037ZM28.7486 28.9081C24.0095 33.8751 18.7556 31.7128 18.7556 31.7128C12.9083 29.731 12.9553 22.9728 12.9553 22.9728C13.1807 14.7454 20.2074 12.4891 20.2074 12.4891C27.1404 10.2696 30.4738 16.28 30.4738 16.28C34.094 23.4661 28.7486 28.9081 28.7486 28.9081Z" fill="black" fill-opacity="0.2"/>
<path d="M30.7942 19.3505C30.7942 19.3505 29.8173 14.571 24.548 13.7276C24.548 13.7276 19.694 12.83 16.2553 18.1492C16.2553 18.1492 12.4972 24.3375 17.5056 29.1896C17.5056 29.1896 21.7898 33.4385 27.5727 29.1896C27.5727 29.1896 32.2525 25.4197 30.7942 19.3505ZM30.0928 24.6029C28.5357 29.1247 24.6692 29.8537 24.6692 29.8537C18.8051 31.0646 17.1263 25.5679 17.1263 25.5679C15.6087 19.7487 19.949 16.7527 19.949 16.7527C25.0291 13.3595 28.5787 17.1315 28.5787 17.1315C31.591 20.469 30.0928 24.6029 30.0928 24.6029Z" fill="#0A0708"/>
<path d="M30.7942 19.3505C30.7942 19.3505 29.8173 14.571 24.548 13.7276C24.548 13.7276 19.694 12.83 16.2553 18.1492C16.2553 18.1492 12.4972 24.3375 17.5056 29.1896C17.5056 29.1896 21.7898 33.4385 27.5727 29.1896C27.5727 29.1896 32.2525 25.4197 30.7942 19.3505ZM30.0928 24.6029C28.5357 29.1247 24.6692 29.8537 24.6692 29.8537C18.8051 31.0646 17.1263 25.5679 17.1263 25.5679C15.6087 19.7487 19.949 16.7527 19.949 16.7527C25.0291 13.3595 28.5787 17.1315 28.5787 17.1315C31.591 20.469 30.0928 24.6029 30.0928 24.6029Z" fill="black" fill-opacity="0.2"/>
<path d="M26.2635 17.1502C26.2635 17.1502 21.5228 15.5543 19.059 21.0658C19.059 21.0658 17.2473 26.2143 21.668 28.5085C21.668 28.5085 25.352 30.2521 28.2724 26.8589C28.2724 26.8589 29.8463 25.1511 29.8841 22.3739C29.8841 22.3739 30.0548 18.5539 26.2635 17.1502ZM25.6746 27.9375C20.3665 28.6782 20.3665 23.408 20.3665 23.408C20.6707 18.8365 24.9364 18.4021 24.9364 18.4021C29.0009 18.3744 29.3719 22.3744 29.3719 22.3744C29.5948 26.8942 25.6746 27.9375 25.6746 27.9375Z" fill="#0A0708"/>
<path d="M26.2635 17.1502C26.2635 17.1502 21.5228 15.5543 19.059 21.0658C19.059 21.0658 17.2473 26.2143 21.668 28.5085C21.668 28.5085 25.352 30.2521 28.2724 26.8589C28.2724 26.8589 29.8463 25.1511 29.8841 22.3739C29.8841 22.3739 30.0548 18.5539 26.2635 17.1502ZM25.6746 27.9375C20.3665 28.6782 20.3665 23.408 20.3665 23.408C20.6707 18.8365 24.9364 18.4021 24.9364 18.4021C29.0009 18.3744 29.3719 22.3744 29.3719 22.3744C29.5948 26.8942 25.6746 27.9375 25.6746 27.9375Z" fill="black" fill-opacity="0.2"/>
<path d="M24.9958 19.809C24.9958 19.809 22.0754 20.3407 21.8853 23.7349C21.8853 23.7349 21.965 27.5508 25.7911 27.148C25.7911 27.148 28.5964 26.6164 28.8996 23.5825C28.8996 23.5825 29.1081 19.3168 24.9958 19.809ZM27.0057 26.1242C24.3496 27.3152 23.4213 24.814 23.4213 24.814C22.7026 22.1599 25.0136 21.0697 25.0136 21.0697C27.6968 20.2185 28.4257 22.71 28.4257 22.71C28.7688 25.3651 27.0057 26.1242 27.0057 26.1242Z" fill="#0A0708"/>
<path d="M24.9958 19.809C24.9958 19.809 22.0754 20.3407 21.8853 23.7349C21.8853 23.7349 21.965 27.5508 25.7911 27.148C25.7911 27.148 28.5964 26.6164 28.8996 23.5825C28.8996 23.5825 29.1081 19.3168 24.9958 19.809ZM27.0057 26.1242C24.3496 27.3152 23.4213 24.814 23.4213 24.814C22.7026 22.1599 25.0136 21.0697 25.0136 21.0697C27.6968 20.2185 28.4257 22.71 28.4257 22.71C28.7688 25.3651 27.0057 26.1242 27.0057 26.1242Z" fill="black" fill-opacity="0.2"/>
<path d="M27.8545 22.4782C27.8545 22.4782 26.3369 20.5245 24.5365 22.858C24.5365 22.858 23.5157 24.8685 25.3917 25.7957C25.3917 25.7957 27.096 26.631 28.083 24.4866C28.083 24.4866 28.4812 23.3135 27.8545 22.4782ZM27.2319 25.2478C26.0337 25.9102 25.3912 24.869 25.3912 24.869C24.557 23.2173 26.2326 22.536 26.2326 22.536C27.1711 22.3059 27.6496 22.9465 27.6496 22.9465C28.5175 24.2658 27.2319 25.2478 27.2319 25.2478Z" fill="#0A0708"/>
<path d="M27.8545 22.4782C27.8545 22.4782 26.3369 20.5245 24.5365 22.858C24.5365 22.858 23.5157 24.8685 25.3917 25.7957C25.3917 25.7957 27.096 26.631 28.083 24.4866C28.083 24.4866 28.4812 23.3135 27.8545 22.4782ZM27.2319 25.2478C26.0337 25.9102 25.3912 24.869 25.3912 24.869C24.557 23.2173 26.2326 22.536 26.2326 22.536C27.1711 22.3059 27.6496 22.9465 27.6496 22.9465C28.5175 24.2658 27.2319 25.2478 27.2319 25.2478Z" fill="black" fill-opacity="0.2"/>
<path d="M26.9109 23.1055C26.9109 23.1055 25.8277 23.1055 25.885 24.3773C25.885 24.3773 26.0737 25.1496 26.9109 25.1154C26.9109 25.1154 27.9895 24.8485 27.668 23.6933C27.668 23.6933 27.5734 23.1791 26.9109 23.1055Z" fill="#0A0708"/>
<path d="M26.9109 23.1055C26.9109 23.1055 25.8277 23.1055 25.885 24.3773C25.885 24.3773 26.0737 25.1496 26.9109 25.1154C26.9109 25.1154 27.9895 24.8485 27.668 23.6933C27.668 23.6933 27.5734 23.1791 26.9109 23.1055Z" fill="black" fill-opacity="0.2"/>
<path d="M35.6336 16.3445C35.7481 16.3169 43.202 16.9881 44.3445 25.2461C44.3445 25.2461 45.3704 32.2804 39.2793 36.2993C39.2793 36.2993 33.367 40.7137 26.96 35.7171L27.4849 35.3551C27.4849 35.3551 31.9281 39.2988 38.1567 35.7866C38.1567 35.7866 42.3908 33.4039 43.2199 27.9441C43.2199 27.9441 44.0312 23.4371 40.9155 19.8962C40.9155 19.8962 38.7589 17.2299 35.7159 16.9702L35.6336 16.3445Z" fill="#4398D3"/>
<path d="M35.7897 17.6562C35.7897 17.6562 40.4225 18.5687 41.7832 23.9652C41.7832 23.9652 43.4589 30.1305 38.1186 34.3277C38.1186 34.3277 33.4925 38.1355 28.0791 34.911L28.7381 34.3686C28.7381 34.3686 32.5023 36.5355 36.856 33.6785C36.856 33.6785 41.9029 30.545 40.54 24.0797C40.54 24.0797 39.9517 20.2146 35.8423 18.4828L35.7897 17.6562Z" fill="#4398D3"/>
<path d="M35.8589 19.5493C35.8589 19.5493 39.5363 21.1253 39.3963 26.5238C39.3963 26.5238 39.062 32.6344 32.774 33.9548C32.774 33.9548 30.7012 34.1838 29.48 33.6761L30.2432 32.9018C30.2432 32.9018 34.2528 33.8755 37.0904 29.462C37.0904 29.462 38.6678 27.1025 37.8796 23.9664C37.8796 23.9664 37.4139 21.8389 35.795 20.5962L35.8589 19.5493Z" fill="#4398D3"/>
<path d="M32.1945 30.4617C32.2042 30.4478 33.8798 30.1524 35.1782 27.5893C35.1782 27.5893 36.0579 25.6612 35.2641 23.6001C35.2641 23.6001 35.532 22.04 35.5959 21.8447C35.5959 21.8447 37.524 23.7054 36.6172 27.3051C36.6172 27.3051 35.6107 31.3797 31.0796 31.9491L32.1945 30.4617Z" fill="#4398D3"/>
<path d="M0.163086 17.7893L2.18888 18.0097C2.23591 17.5527 2.29929 17.0804 2.38363 16.5953C2.38363 16.5953 3.19998 12.0565 6.06563 8.62552C6.06563 8.62552 10.1417 2.99187 17.2154 2.27879L17.5231 0.480469C15.8817 0.531075 14.8118 0.809666 14.8118 0.809666C6.14895 2.73168 2.3683 10.8134 2.3683 10.8134C1.05457 13.2563 0.408961 15.6327 0.163086 17.7893Z" fill="#4398D3"/>
<path d="M10.8777 35.1765C9.30334 34.1352 6.68506 31.9571 5.4337 28.4152C5.4337 28.4152 3.97225 25.1339 4.48854 20.1034L2.46276 19.8872C1.83401 25.3967 3.80203 29.4692 3.82095 29.5091C5.3601 33.0975 7.86949 35.225 9.7301 36.3895L10.8777 35.1765Z" fill="#0A0708"/>
<path d="M10.8777 35.1765C9.30334 34.1352 6.68506 31.9571 5.4337 28.4152C5.4337 28.4152 3.97225 25.1339 4.48854 20.1034L2.46276 19.8872C1.83401 25.3967 3.80203 29.4692 3.82095 29.5091C5.3601 33.0975 7.86949 35.225 9.7301 36.3895L10.8777 35.1765Z" fill="black" fill-opacity="0.2"/>
<path d="M35.4072 19.3393C35.4481 12.8289 32.2855 8.63115 32.2855 8.63115C28.3923 3.249 23.0199 2.4807 19.8235 2.5768L19.5169 4.37511C19.5639 4.36898 19.613 4.36233 19.662 4.35876C19.662 4.35876 27.1323 3.18101 32.1147 10.3641C32.1147 10.3641 35.1864 14.3911 34.573 21.3507C34.573 21.3507 34.1124 26.8463 29.9499 31.6908C29.9499 31.6908 25.0477 37.4353 17.9526 37.3296L18.2757 38.515C24.4052 38.1163 28.604 33.9528 28.604 33.9528C35.5095 27.6494 35.4072 19.3393 35.4072 19.3393Z" fill="#0A0708"/>
<path d="M35.4072 19.3393C35.4481 12.8289 32.2855 8.63115 32.2855 8.63115C28.3923 3.249 23.0199 2.4807 19.8235 2.5768L19.5169 4.37511C19.5639 4.36898 19.613 4.36233 19.662 4.35876C19.662 4.35876 27.1323 3.18101 32.1147 10.3641C32.1147 10.3641 35.1864 14.3911 34.573 21.3507C34.573 21.3507 34.1124 26.8463 29.9499 31.6908C29.9499 31.6908 25.0477 37.4353 17.9526 37.3296L18.2757 38.515C24.4052 38.1163 28.604 33.9528 28.604 33.9528C35.5095 27.6494 35.4072 19.3393 35.4072 19.3393Z" fill="black" fill-opacity="0.2"/>
<path d="M17.6315 39.7907C15.8245 39.7642 13.8764 39.3584 11.8307 38.3835C11.8307 38.3835 11.3129 38.1433 10.5527 37.6377L9.4082 38.8497C10.7981 39.7197 11.8297 40.0525 11.8297 40.0525C14.0077 40.8668 16.0698 41.0999 17.951 40.9757L17.6315 39.7907Z" fill="#4398D3"/>
<path d="M50.4893 15.8467H57.387V16.282H50.965V20.4918H56.7724V20.9272H50.965V25.2078H57.4559V25.6402H50.4893V15.8457V15.8467Z" fill="#0A0708"/>
<path d="M50.2393 15.8467V16.0967V25.6402V25.8902H50.4893H57.4559H57.7059V25.6402V25.2078V24.9578H57.4559H51.215V21.1772H56.7724H57.0224V20.9272V20.4918V20.2418H56.7724H51.215V16.532H57.387H57.637V16.282V15.8467V15.5967H57.387H50.4893V15.8457H50.2393V15.8467Z" fill="black" fill-opacity="0.2" stroke="black" stroke-width="0.5"/>
<path d="M63.5328 15.7749H63.9809L68.626 25.6404H68.1089L66.7802 22.7849H60.7217L59.3782 25.6404H58.8887L63.5328 15.7749ZM66.5705 22.3525L63.7436 16.3364L60.9315 22.3525H66.5705Z" fill="#0A0708"/>
<path d="M63.5328 15.5249H63.3742L63.3066 15.6684L58.6625 25.5339L58.4947 25.8904H58.8887H59.3782H59.5369L59.6044 25.7468L60.8804 23.0349H66.6208L67.8823 25.7458L67.9495 25.8904H68.1089H68.626H69.0201L68.8522 25.5339L64.2071 15.6684L64.1395 15.5249H63.9809H63.5328ZM61.3243 22.1025L63.7442 16.9255L66.1768 22.1025H61.3243Z" fill="black" fill-opacity="0.2" stroke="black" stroke-width="0.5"/>
<path d="M69.7875 24.2098L70.1087 23.8621C71.1449 24.8402 72.2924 25.3435 73.7176 25.3435C75.4117 25.3435 76.5178 24.4225 76.5178 23.1893V23.1627C76.5178 22.0143 75.8589 21.3987 73.494 20.9111C71.1025 20.4334 70.1648 19.6779 70.1648 18.2645V18.2379C70.1648 16.8373 71.4935 15.7036 73.3413 15.7036C74.6848 15.7036 75.7476 16.1241 76.6705 16.8521L76.3772 17.2283C75.4817 16.5152 74.4602 16.139 73.3127 16.139C71.7033 16.139 70.6405 17.1023 70.6405 18.1956V18.2241C70.6405 19.3539 71.2985 19.9862 73.6762 20.4758C76.1098 20.9633 76.9919 21.7483 76.9919 23.1204V23.149C76.9919 24.6589 75.6915 25.7769 73.6891 25.7769C72.1653 25.7769 70.8907 25.2322 69.7866 24.2098H69.7875Z" fill="#0A0708"/>
<path d="M69.925 23.6925L69.6781 23.9598H69.1487L69.6168 24.3932C70.7634 25.455 72.0974 26.0269 73.6891 26.0269C74.7354 26.0269 75.6204 25.7347 76.2492 25.2231C76.8811 24.7088 77.2419 23.9814 77.2419 23.149V23.1204C77.2419 22.37 76.9954 21.7553 76.4048 21.2728C75.8319 20.8047 74.9539 20.4768 73.726 20.2308C72.5437 19.9873 71.8339 19.7157 71.4206 19.393C71.0311 19.0889 70.8905 18.728 70.8905 18.2241V18.1956C70.8905 17.2874 71.7891 16.389 73.3127 16.389C74.4008 16.389 75.3679 16.7442 76.2215 17.4239L76.4191 17.5813L76.5744 17.382L76.8677 17.0058L77.0205 16.8097L76.8253 16.6558C75.8609 15.8951 74.7442 15.4536 73.3413 15.4536C71.406 15.4536 69.9148 16.6536 69.9148 18.2379V18.2645C69.9148 19.0381 70.1771 19.656 70.7767 20.1342C71.358 20.5976 72.2386 20.9152 73.4443 21.1561C74.6209 21.3988 75.3274 21.6658 75.7392 21.9864C76.1263 22.2878 76.2678 22.6485 76.2678 23.1627V23.1893C76.2678 24.232 75.3327 25.0935 73.7176 25.0935C72.3622 25.0935 71.2746 24.6188 70.2803 23.6803L70.0965 23.5068L69.925 23.6925Z" fill="black" fill-opacity="0.2" stroke="black" stroke-width="0.5"/>
<path d="M82.0344 21.6265L77.8647 15.8457H78.4528L82.2874 21.2068L86.0924 15.8457H86.666L82.5108 21.6265V25.6402H82.0344V21.6265Z" fill="#0A0708"/>
<path d="M82.2866 20.776L78.6562 15.7003L78.5814 15.5957H78.4528H77.8647H77.3762L77.662 15.992L81.7844 21.7072V25.6402V25.8902H82.0344H82.5108H82.7608V25.6402V21.707L86.869 15.9916L87.1536 15.5957H86.666H86.0924H85.9632L85.8885 15.701L82.2866 20.776Z" fill="black" fill-opacity="0.2" stroke="black" stroke-width="0.5"/>
<path d="M88.4722 15.8457H92.5165C93.7617 15.8457 94.713 16.1973 95.314 16.7843C95.7622 17.2473 96.0281 17.8776 96.0281 18.6036V18.6302C96.0281 20.2829 94.7555 21.2482 92.9503 21.4009L96.2105 25.6402H95.6087L92.4184 21.459H88.9478V25.6402H88.4722V15.8457ZM92.3903 21.0227C94.4045 21.0227 95.5525 20.0446 95.5525 18.6588V18.6302C95.5525 17.1626 94.4189 16.2811 92.4883 16.2811H88.9493V21.0227H92.3919H92.3903Z" fill="#0A0708"/>
<path d="M88.4722 15.5957H88.2222V15.8457V25.6402V25.8902H88.4722H88.9478H89.1978V25.6402V21.709H92.2947L95.41 25.7919L95.485 25.8902H95.6087H96.2105H96.7181L96.4087 25.4878L93.415 21.5951C94.1695 21.4709 94.8303 21.1961 95.3291 20.7677C95.9295 20.2521 96.2781 19.5277 96.2781 18.6302V18.6036C96.2781 17.8142 95.988 17.121 95.4936 16.6104L95.4936 16.6104L95.4886 16.6055C94.8277 15.9599 93.8058 15.5957 92.5165 15.5957H88.4722ZM89.1993 20.7727V16.5311H92.4883C93.4196 16.5311 94.1251 16.7441 94.5919 17.1034C95.0504 17.4563 95.3025 17.9678 95.3025 18.6302V18.6588C95.3025 19.2758 95.0502 19.7933 94.5736 20.1628C94.0909 20.5371 93.3599 20.7727 92.3903 20.7727H89.1993Z" fill="black" fill-opacity="0.2" stroke="black" stroke-width="0.5"/>
<path d="M98.5933 15.8467H105.491V16.282H99.0674V20.4918H104.875V20.9272H99.0674V25.2078H105.56V25.6402H98.5933V15.8457V15.8467Z" fill="#0A0708"/>
<path d="M98.3433 15.8467V16.0967V25.6402V25.8902H98.5933H105.56H105.81V25.6402V25.2078V24.9578H105.56H99.3174V21.1772H104.875H105.125V20.9272V20.4918V20.2418H104.875H99.3174V16.532H105.491H105.741V16.282V15.8467V15.5967H105.491H98.5933V15.8457H98.3433V15.8467Z" fill="black" fill-opacity="0.2" stroke="black" stroke-width="0.5"/>
<path d="M111.635 15.7749H112.082L116.728 25.6404H116.209L114.881 22.7849H108.823L107.48 25.6404H106.989L111.635 15.7749ZM114.67 22.3525L111.844 16.3364L109.032 22.3525H114.67Z" fill="#0A0708"/>
<path d="M111.635 15.5249H111.476L111.409 15.6684L106.763 25.5339L106.595 25.8904H106.989H107.48H107.638L107.706 25.7468L108.982 23.0349H114.721L115.983 25.7459L116.05 25.8904H116.209H116.728H117.122L116.954 25.5339L112.309 15.6684L112.241 15.5249H112.082H111.635ZM109.425 22.1025L111.844 16.9256L114.276 22.1025H109.425Z" fill="black" fill-opacity="0.2" stroke="black" stroke-width="0.5"/>
<path d="M117.695 20.7706V20.744C117.695 17.988 119.737 15.6772 122.535 15.6772C124.353 15.6772 125.347 16.352 126.299 17.2305L125.962 17.5803C125.153 16.7981 124.157 16.1106 122.521 16.1106C120.03 16.1106 118.182 18.1978 118.182 20.7301V20.7567C118.182 23.2891 120.057 25.3743 122.534 25.3743C124.059 25.3743 125.151 24.7035 126.017 23.8072L126.355 24.1283C125.431 25.0669 124.241 25.8086 122.506 25.8086C119.737 25.8086 117.694 23.5551 117.694 20.7706H117.695Z" fill="#0A0708"/>
<path d="M126.479 17.4039L126.656 17.2199L126.469 17.0468C125.985 16.6004 125.476 16.1924 124.848 15.898C124.217 15.6025 123.477 15.4272 122.535 15.4272C119.659 15.4272 117.557 17.7415 117.45 20.5206H117.444V20.7706C117.444 23.6784 119.585 26.0586 122.506 26.0586C124.325 26.0586 125.576 25.276 126.533 24.3037L126.711 24.1225L126.527 23.9472L126.19 23.6261L126.01 23.455L125.837 23.6334C125.004 24.4959 123.973 25.1243 122.534 25.1243C120.212 25.1243 118.432 23.1687 118.432 20.7567V20.7301C118.432 18.3165 120.187 16.3606 122.521 16.3606C124.07 16.3606 125.006 17.0044 125.789 17.7601L125.969 17.9341L126.143 17.7536L126.479 17.4039Z" fill="black" fill-opacity="0.2" stroke="black" stroke-width="0.5"/>
<path d="M128.346 15.8457H128.821V20.4918H135.524V15.8457H135.999V25.6402H135.524V20.9272H128.821V25.6402H128.346V15.8457Z" fill="#0A0708"/>
<path d="M128.346 15.5957H128.096V15.8457V25.6402V25.8902H128.346H128.821H129.071V25.6402V21.1772H135.274V25.6402V25.8902H135.524H135.999H136.249V25.6402V15.8457V15.5957H135.999H135.524H135.274V15.8457V20.2418H129.071V15.8457V15.5957H128.821H128.346Z" fill="black" fill-opacity="0.2" stroke="black" stroke-width="0.5"/>
</g>
<defs>
<clipPath id="clip0_221_554">
<rect width="140" height="41" fill="white"/>
</clipPath>
</defs>
</svg>
